<svg xmlns="http://www.w3.org/2000/svg" viewBox="0 0 1440 320"><path fill="#4f000e" fill-opacity="0.9" d="M0,288L17.1,288C34.3,288,69,288,103,261.3C137.1,235,171,181,206,181.3C240,181,274,235,309,245.3C342.9,256,377,224,411,186.7C445.7,149,480,107,514,96C548.6,85,583,107,617,144C651.4,181,686,235,720,245.3C754.3,256,789,224,823,213.3C857.1,203,891,213,926,186.7C960,160,994,96,1029,80C1062.9,64,1097,96,1131,101.3C1165.7,107,1200,85,1234,74.7C1268.6,64,1303,64,1337,90.7C1371.4,117,1406,171,1423,197.3L1440,224L1440,320L1422.9,320C1405.7,320,1371,320,1337,320C1302.9,320,1269,320,1234,320C1200,320,1166,320,1131,320C1097.1,320,1063,320,1029,320C994.3,320,960,320,926,320C891.4,320,857,320,823,320C788.6,320,754,320,720,320C685.7,320,651,320,617,320C582.9,320,549,320,514,320C480,320,446,320,411,320C377.1,320,343,320,309,320C274.3,320,240,320,206,320C171.4,320,137,320,103,320C68.6,320,34,320,17,320L0,320Z"></path></svg>