<svg xmlns="http://www.w3.org/2000/svg" viewBox="0 0 1440 320"><path fill="#4f000e" fill-opacity="0.9" d="M0,288L34.3,266.7C68.6,245,137,203,206,176C274.3,149,343,139,411,133.3C480,128,549,128,617,149.3C685.7,171,754,213,823,197.3C891.4,181,960,107,1029,80C1097.1,53,1166,75,1234,112C1302.9,149,1371,203,1406,229.3L1440,256L1440,0L1405.7,0C1371.4,0,1303,0,1234,0C1165.7,0,1097,0,1029,0C960,0,891,0,823,0C754.3,0,686,0,617,0C548.6,0,480,0,411,0C342.9,0,274,0,206,0C137.1,0,69,0,34,0L0,0Z"></path></svg>